<?xml version="1.0" standalone="no"?>
<!DOCTYPE svg PUBLIC "-//W3C//DTD SVG 20010904//EN"
 "http://www.w3.org/TR/2001/REC-SVG-20010904/DTD/svg10.dtd">
<svg version="1.0" xmlns="http://www.w3.org/2000/svg"
 width="1024.000000pt" height="1024.000000pt" viewBox="0 0 1024.000000 1024.000000"
 preserveAspectRatio="xMidYMid meet">
<metadata>
Created by potrace 1.14, written by Peter Selinger 2001-2017
</metadata>
<g transform="translate(0.000000,1024.000000) scale(0.100000,-0.100000)"
fill="#000000" stroke="none">
<path d="M5187 9465 c-32 -11 -69 -36 -115 -78 -103 -96 -93 -92 -147 -58 -26
16 -65 33 -88 36 -23 4 -50 12 -60 17 -38 20 -132 28 -216 18 -124 -14 -170
-40 -291 -167 l-102 -106 -71 18 c-84 22 -174 23 -236 1 -60 -22 -166 -100
-202 -149 -37 -51 -56 -114 -65 -219 -3 -46 -11 -88 -16 -95 -5 -6 -28 -15
-51 -18 -66 -11 -112 -40 -163 -102 -27 -32 -101 -110 -166 -173 -104 -102
-121 -122 -139 -175 -25 -70 -22 -183 5 -247 16 -37 15 -39 -5 -55 -87 -70
-84 -66 -84 -145 0 -40 4 -87 7 -105 6 -27 1 -39 -39 -90 -59 -75 -93 -148
-93 -198 0 -43 32 -120 74 -174 28 -38 33 -78 15 -130 -9 -26 -8 -39 6 -71 14
-32 15 -43 5 -72 -11 -29 -10 -39 4 -66 9 -17 16 -54 16 -84 0 -47 46 -233 70
-279 6 -11 -2 -36 -21 -74 -25 -50 -29 -69 -29 -141 0 -96 34 -290 92 -524 79
-321 113 -395 202 -436 l53 -24 5 -63 c4 -38 19 -96 42 -152 34 -83 36 -95 30
-160 -7 -84 17 -173 63 -232 22 -28 32 -53 37 -96 8 -71 32 -120 83 -168 28
-27 46 -59 68 -118 31 -86 62 -129 114 -155 18 -10 40 -31 51 -48 10 -17 53
-66 94 -109 42 -43 76 -82 76 -87 0 -4 -23 -14 -52 -22 -63 -16 -379 -171
-471 -231 -36 -24 -101 -63 -144 -87 -43 -23 -107 -68 -143 -98 -36 -31 -106
-85 -156 -120 -103 -74 -131 -107 -238 -291 -67 -114 -79 -141 -83 -192 -5
-51 -2 -65 22 -110 17 -31 25 -55 19 -60 -5 -5 -92 -52 -194 -106 -215 -113
-311 -174 -330 -209 -7 -14 -29 -36 -49 -50 -90 -60 -153 -148 -226 -313 -123
-282 -237 -716 -275 -1050 -9 -84 -9 -108 2 -130 l14 -28 134 5 c212 7 497 6
1382 -8 80 -2 100 -5 115 -21 25 -26 97 -33 152 -14 35 12 94 15 279 14 252 0
314 -5 349 -27 13 -8 51 -17 85 -21 66 -7 85 -7 157 3 l44 6 -7 116 c-11 178
-65 538 -126 837 -21 103 -74 303 -115 435 -20 64 -59 304 -79 485 l-6 50 23
-30 c12 -16 37 -46 55 -65 l34 -35 -27 45 c-68 115 -103 210 -77 210 5 0 18
17 30 39 18 31 22 55 23 127 0 78 13 187 19 159 1 -5 4 -23 6 -40 2 -16 18
-74 35 -127 54 -169 167 -323 327 -444 47 -35 88 -61 91 -58 3 3 -3 12 -14 20
-27 19 -75 66 -75 73 1 35 143 44 322 22 54 -7 144 -14 200 -16 57 -2 115 -6
131 -8 15 -3 27 -2 27 1 0 4 26 7 58 6 31 0 71 3 87 8 27 8 171 21 250 22 17
1 32 4 35 7 9 12 150 18 180 8 43 -16 43 -33 -3 -80 -42 -42 -42 -42 -7 -19
53 36 147 128 196 192 64 83 119 190 157 308 39 118 27 121 106 -31 50 -98 52
-127 17 -223 -13 -36 -22 -66 -19 -66 2 0 16 26 31 58 l27 57 3 -95 c3 -105
-28 -417 -58 -580 -49 -260 -82 -463 -95 -579 -31 -271 -55 -744 -38 -754 5
-4 26 -2 45 4 20 5 58 12 85 14 26 3 86 11 133 19 47 8 135 17 195 21 92 6
117 4 150 -9 50 -21 88 -15 175 27 87 42 185 48 695 46 597 -2 956 6 967 23
23 35 -74 495 -161 763 -66 203 -117 310 -227 476 -95 144 -246 262 -507 399
-63 33 -120 67 -126 74 -7 8 -7 23 -1 47 6 18 10 59 10 90 0 50 -8 73 -72 200
-68 138 -76 148 -172 244 -89 88 -120 110 -247 182 -80 45 -181 105 -224 134
-93 61 -248 140 -388 198 -102 42 -288 101 -319 101 -23 0 -23 6 5 54 16 28
33 43 61 53 85 29 137 95 171 220 16 57 19 62 51 68 75 14 133 95 157 220 10
53 22 82 50 118 34 44 67 127 67 167 0 9 9 25 21 36 38 34 49 69 49 154 0 54
5 88 15 103 16 25 35 136 35 212 0 50 1 51 38 64 79 28 140 93 172 183 23 67
79 311 121 533 41 218 46 376 12 443 l-21 43 23 25 c42 46 62 207 30 250 -19
25 -19 48 2 87 10 20 17 62 19 114 2 63 7 91 23 117 25 39 28 107 12 207 -9
55 -8 73 4 102 20 49 19 93 -6 147 -12 25 -30 78 -41 119 -11 44 -31 90 -48
111 l-29 36 20 30 c10 16 27 53 36 82 16 49 16 56 -1 128 -19 81 -48 128 -157
261 -73 88 -92 105 -163 145 l-59 33 -51 150 c-61 179 -81 213 -149 258 -53
35 -141 77 -161 77 -6 0 -38 13 -72 29 -34 16 -80 32 -103 36 -35 6 -48 15
-80 59 -46 62 -97 99 -173 125 -31 11 -67 25 -80 32 -15 9 -63 13 -140 14
l-117 0 -73 53 c-168 121 -301 162 -411 127z m248 -1613 c31 -18 108 -44 190
-64 28 -6 52 -15 55 -18 3 -3 21 -7 40 -8 74 -5 196 -46 260 -87 73 -47 222
-184 214 -197 -3 -4 -1 -8 5 -8 6 0 13 -11 17 -25 3 -14 10 -25 14 -25 13 0
57 -122 64 -178 4 -29 11 -63 16 -75 16 -42 23 -62 27 -82 2 -11 8 -24 13 -29
6 -6 10 -18 10 -28 0 -10 4 -18 10 -18 12 0 9 -22 -5 -33 -6 -6 -6 -10 3 -14
6 -2 12 -11 12 -19 0 -17 -29 -31 -39 -18 -12 17 -66 50 -131 81 -196 94 -474
116 -646 52 -74 -28 -106 -66 -112 -133 -4 -51 -2 -57 26 -86 35 -35 42 -36
194 -14 157 22 319 15 468 -21 63 -15 128 -34 145 -42 l30 -14 -30 5 c-124 20
-436 23 -550 7 -143 -21 -271 -67 -395 -141 l-65 -38 -75 13 c-94 17 -150 18
-261 3 -87 -11 -88 -11 -122 15 -57 43 -147 84 -232 106 -247 62 -421 73 -638
42 -168 -24 -187 -25 -187 -11 0 6 11 10 25 10 13 0 68 11 122 25 160 40 259
49 448 40 273 -13 280 -12 304 9 26 23 37 93 21 140 -27 82 -111 110 -335 110
-134 -1 -173 -4 -240 -22 -107 -30 -189 -69 -257 -125 -56 -46 -56 -46 -48
-16 5 16 6 29 3 29 -3 0 1 7 8 16 7 9 14 22 15 30 4 24 34 125 54 179 10 28
21 62 24 78 4 15 11 27 16 27 5 0 7 6 4 14 -3 8 4 32 15 55 12 22 21 47 21 56
0 8 5 14 11 12 7 -1 15 11 20 27 4 15 15 36 23 45 9 9 26 27 38 42 29 32 123
105 184 143 26 17 73 56 103 89 31 32 65 64 76 70 12 6 90 11 190 13 182 2
221 -4 334 -51 113 -46 226 -32 349 44 66 40 95 43 147 13z m-1345 -1196 c0
-2 -30 -18 -66 -35 -36 -17 -84 -45 -107 -63 -24 -20 -38 -26 -35 -17 4 9 2
21 -4 27 -15 15 19 55 61 73 30 12 151 24 151 15z m390 -26 c19 -5 48 -11 64
-14 80 -14 196 -99 232 -169 44 -84 21 -254 -55 -411 -68 -140 -204 -253 -341
-285 -93 -22 -240 -25 -330 -7 -147 30 -235 83 -320 193 -10 12 5 167 17 186
6 9 8 25 18 107 2 19 8 49 13 65 l8 30 7 -32 c4 -18 10 -33 14 -33 5 0 24 35
43 78 46 102 131 190 216 221 199 75 318 48 473 -108 31 -31 71 -85 89 -120
23 -47 32 -57 32 -39 0 84 -88 234 -179 303 -66 50 -66 53 -1 35z m1200 -11
c0 -3 -20 -20 -45 -38 -50 -36 -98 -91 -145 -169 -26 -43 -33 -66 -36 -120 -3
-49 -1 -59 5 -35 26 99 171 258 286 314 64 31 77 34 165 34 87 0 101 -3 161
-32 119 -59 198 -148 235 -265 10 -32 21 -58 25 -58 12 0 18 73 10 117 -6 33
-5 40 6 36 7 -3 13 -8 13 -12 0 -4 9 -17 20 -29 16 -17 23 -44 30 -110 6 -48
15 -107 20 -132 6 -25 9 -75 7 -111 -4 -83 -32 -131 -109 -181 -105 -70 -184
-90 -356 -89 -191 1 -318 47 -428 156 -148 146 -226 434 -155 573 15 30 91
112 104 112 1 0 31 10 67 23 61 21 120 29 120 16z m-1805 -82 c0 -13 -8 -34
-17 -48 l-17 -24 0 23 c-1 12 4 22 10 22 5 0 7 5 4 10 -4 6 -1 17 5 25 16 19
16 19 15 -8z m-64 -144 c-12 -20 -14 -14 -5 12 4 9 9 14 11 11 3 -2 0 -13 -6
-23z m1330 -124 c44 -22 56 -39 104 -159 96 -238 185 -366 319 -455 158 -104
231 -122 568 -135 288 -12 314 -20 301 -96 -11 -68 -54 -155 -133 -268 -25
-36 -83 -91 -111 -105 -25 -12 -32 -10 -103 38 -43 28 -84 51 -91 51 -8 0 -16
4 -19 9 -3 5 -43 19 -88 31 -74 20 -98 22 -226 17 -132 -5 -143 -4 -137 11 52
122 66 212 46 284 -13 47 -74 138 -92 138 -7 0 -9 -10 -5 -27 3 -16 9 -49 12
-74 5 -39 4 -47 -12 -53 -14 -5 -25 1 -44 24 l-26 31 -17 -39 c-31 -69 -98
-123 -158 -124 -16 -1 -32 -5 -35 -10 -7 -12 -129 -10 -199 3 -92 17 -144 49
-199 122 -26 36 -29 37 -46 22 -25 -23 -60 -1 -60 37 0 39 -15 42 -44 8 -56
-68 -61 -210 -11 -332 6 -16 1 -18 -41 -18 -80 0 -315 -29 -370 -46 -28 -9
-80 -38 -115 -65 -62 -47 -101 -60 -114 -39 -4 6 -10 8 -14 6 -4 -3 -16 9 -26
27 -11 18 -30 43 -43 57 -35 37 -122 167 -122 182 0 8 -7 24 -16 36 -20 30
-35 82 -23 82 5 0 9 5 9 11 0 6 -6 9 -14 6 -10 -4 -13 0 -11 15 9 45 12 45
298 50 267 5 274 6 368 35 104 32 248 115 305 175 73 76 164 250 218 414 37
112 53 138 91 146 31 7 87 -3 126 -23z m1402 -424 c-5 -42 -32 -126 -43 -135
-4 -3 -13 -16 -19 -28 -7 -13 -32 -33 -56 -43 -39 -17 -72 -20 -302 -22 -269
-2 -287 0 -401 45 -68 27 -61 34 14 13 79 -22 299 -31 393 -16 156 24 296 102
368 205 42 59 54 54 46 -19z m-2841 -33 c7 -18 126 -90 188 -115 100 -40 185
-50 344 -44 141 6 213 19 301 57 25 11 45 18 45 16 0 -12 -92 -60 -157 -83
-76 -27 -84 -28 -288 -27 -225 0 -346 16 -394 52 -24 18 -46 65 -54 122 -5 27
6 43 15 22z m1728 -1037 c14 -8 48 -14 76 -15 64 0 114 -10 114 -22 0 -5 -7
-11 -15 -13 -51 -16 -51 -17 -30 -25 17 -6 13 -11 -30 -32 -215 -109 -478
-135 -725 -72 -96 24 -214 80 -207 98 4 9 -2 17 -14 21 -24 8 -24 21 0 35 38
20 225 32 401 26 96 -3 204 -2 240 3 101 13 163 12 190 -4z m-685 -199 c140
-45 209 -57 338 -57 188 0 357 41 503 121 93 52 126 51 62 -2 -115 -94 -326
-175 -474 -182 -240 -10 -444 46 -610 169 -79 58 -70 69 18 22 46 -25 119 -56
163 -71z m1033 20 c0 -13 -8 -29 -18 -36 -17 -12 -16 -15 8 -41 13 -16 29 -26
33 -23 5 3 9 -2 9 -11 0 -10 -5 -13 -12 -9 -7 4 -8 3 -4 -4 8 -13 -38 -75
-131 -179 -46 -52 -72 -73 -89 -73 -13 0 -53 -15 -88 -34 -67 -36 -221 -72
-321 -75 -27 -1 -73 -8 -102 -16 -51 -15 -52 -15 -78 11 -21 21 -32 25 -57 20
-19 -4 -43 0 -64 10 -26 12 -49 15 -89 10 -30 -3 -55 -2 -55 3 0 5 -13 14 -30
21 -16 7 -30 16 -30 21 0 5 -6 9 -12 9 -17 1 -83 61 -84 78 -1 6 -2 18 -2 26
-1 7 -11 16 -22 19 -11 3 -20 10 -20 17 0 6 6 8 13 4 6 -4 -2 8 -19 27 -17 19
-34 41 -37 49 -4 11 -6 10 -6 -4 -2 -36 -13 -8 -16 41 -2 26 -1 40 1 31 6 -20
6 -20 28 -12 20 8 21 24 1 24 -17 0 -21 35 -5 45 6 3 25 -9 43 -28 17 -19 43
-38 56 -42 18 -5 21 -9 10 -16 -11 -7 -11 -9 3 -9 9 0 26 -12 37 -26 12 -15
21 -24 21 -20 0 4 22 -15 49 -41 27 -26 51 -49 55 -50 3 -2 29 -14 58 -28 28
-14 64 -25 79 -25 14 0 43 -7 62 -15 25 -10 37 -11 39 -3 3 7 10 4 21 -7 13
-12 21 -14 30 -7 14 12 35 11 56 -2 8 -5 16 -4 20 2 3 6 29 13 56 16 45 5 63
8 117 19 9 1 31 15 49 30 18 15 37 27 43 27 5 0 20 10 33 22 13 12 23 16 23
10 0 -7 5 -12 10 -12 6 0 10 7 10 15 0 9 10 19 23 24 12 5 22 12 22 17 0 4 8
9 17 9 10 1 27 10 38 20 12 11 20 13 20 6 0 -7 5 -9 10 -6 6 4 8 9 6 13 -2 4
2 16 10 27 8 10 14 13 14 7 0 -7 5 -12 10 -12 6 0 10 8 8 18 -2 11 4 18 20 20
14 2 22 10 22 22 0 10 9 22 20 25 15 5 19 12 15 26 -6 17 3 24 28 20 4 0 7 6
7 14 0 8 6 15 14 15 8 0 14 -10 14 -24z"/>
<path d="M4225 6570 c-63 -15 -115 -50 -150 -102 -75 -113 -67 -231 23 -318
156 -151 412 -47 412 167 0 59 -27 139 -61 177 -50 58 -154 93 -224 76z m23
-66 c47 -33 10 -114 -53 -114 -38 0 -55 16 -55 50 0 29 15 52 45 68 27 15 37
15 63 -4z m207 -255 c19 -58 -60 -126 -157 -136 -45 -4 -59 -1 -88 19 -35 24
-57 77 -27 65 73 -28 94 -29 139 -9 27 12 53 32 64 51 22 37 59 42 69 10z"/>
<path d="M5795 6561 c-100 -47 -152 -116 -162 -217 -10 -95 43 -190 131 -237
57 -30 174 -30 231 0 183 96 178 372 -8 462 -60 29 -120 27 -192 -8z m67 -58
c38 -35 15 -93 -44 -108 -33 -8 -68 23 -68 60 0 54 71 85 112 48z m206 -255
c14 -120 -231 -185 -288 -77 -15 27 -6 35 25 21 35 -16 100 -15 133 2 15 8 43
31 62 50 39 42 64 43 68 4z"/>
<path d="M6320 5230 c0 -5 5 -10 10 -10 6 0 10 5 10 10 0 6 -4 10 -10 10 -5 0
-10 -4 -10 -10z"/>
<path d="M5540 4390 c0 -5 5 -10 10 -10 6 0 10 5 10 10 0 6 -4 10 -10 10 -5 0
-10 -4 -10 -10z"/>
<path d="M4560 4370 c0 -5 5 -10 10 -10 6 0 10 5 10 10 0 6 -4 10 -10 10 -5 0
-10 -4 -10 -10z"/>
<path d="M4640 4330 c0 -5 5 -10 10 -10 6 0 10 5 10 10 0 6 -4 10 -10 10 -5 0
-10 -4 -10 -10z"/>
</g>
</svg>
